# xmcd
#
# Track frame offsets: 
#        150
#        12155
#        24207
#        38057
#        53330
#        67060
#        77945
#        90315
#        104040
#        119967
#        135715
#        149035
#        159615
#        181845
#        191857
#        200165
#        214420
#        227645
#        241925
#        255067
#
# Disc length: 3583 seconds
#
# Revision: 1
# Processed by: cddbd v1.5.2PL0 Copyright (c) Steve Scherf et al.
# Submitted via: ExactAudioCopy v1.0b1
#
DISCID=1f0dfd14
DTITLE=Dolly Parton - Both Sides of Dolly Parton
DYEAR=1979
DGENRE=Country
TTITLE0=Jolene
TTITLE1=Bargain Store
TTITLE2=Coat of Many Colours
TTITLE3=Applekack
TTITLE4=Two Doors Down
TTITLE5=Shattered Image
TTITLE6=Living on Memories of You
TTITLE7=My Tennessee Mountain Home
TTITLE8=Heartbreaker
TTITLE9=Sure Thing
TTITLE10=Here You Come Again
TTITLE11=Love Is Like A Butterfly
TTITLE12=Light Of A Clear Blue Morning
TTITLE13=Travelling Man
TTITLE14=Randy
TTITLE15=Lonely Coming Down
TTITLE16=Joshua
TTITLE17=Sweet Music Man
TTITLE18=Higher and Higher
TTITLE19=The Seeker
EXTD=
EXTT0=
EXTT1=
EXTT2=
EXTT3=
EXTT4=
EXTT5=
EXTT6=
EXTT7=
EXTT8=
EXTT9=
EXTT10=
EXTT11=
EXTT12=
EXTT13=
EXTT14=
EXTT15=
EXTT16=
EXTT17=
EXTT18=
EXTT19=
PLAYORDER=
